<svg width="50" height="14" viewBox="0 0 50 14" fill="none" xmlns="http://www.w3.org/2000/svg">
<rect width="50" height="14" rx="7" fill="#FADCA2"/>
<path d="M7.16 3.14H12.84V6.63H7.16V3.14ZM11.89 5.73V4.04H8.11V5.73H11.89ZM9.52 7.38V11.88H8.6V11.4H6.75V11.88H5.82V7.38H9.52ZM6.75 10.51H8.6V8.28H6.75V10.51ZM14.18 7.38V11.88H13.23V11.4H11.3V11.88H10.37V7.38H14.18ZM11.3 10.51H13.23V8.28H11.3V10.51ZM17.65 2.91H18.57V5.5H19.08V6.39H16.87V6.78C16.87 6.98667 16.8633 7.26333 16.85 7.61H18.68V11.89H17.76V8.5H16.81C16.69 10.0533 16.4167 11.26 15.99 12.12L15.29 11.51C15.7233 10.5367 15.9467 8.96 15.96 6.78V3.11H16.87V5.5H17.65V2.91ZM19.43 3.65H20.98C21.1133 3.34333 21.2133 3.04 21.28 2.74L22.22 2.87C22.1467 3.15667 22.0533 3.41667 21.94 3.65H24.12V8.02H21.79L21.69 8.21C21.4167 8.65667 21.0133 9.01333 20.48 9.28H22.01V8.34H22.93V9.28H24.58V10.19H22.93V12H22.01V10.19H19.01V9.28H20.05L19.73 8.79C20.2167 8.56333 20.5733 8.30667 20.8 8.02H19.43V3.65ZM23.26 7.21V6.22H22.2C22.1733 6.55333 22.1267 6.88333 22.06 7.21H23.26ZM21.18 7.21C21.2667 6.87667 21.32 6.54667 21.34 6.22H20.29V7.21H21.18ZM20.29 5.43H21.36V4.47H20.29V5.43ZM22.22 4.47V5.43H23.26V4.47H22.22ZM28.67 11.47V12H27.72V8.57C27.1733 8.73667 26.5767 8.89667 25.93 9.05L25.43 8.13C27.1167 7.80333 28.51 7.38667 29.61 6.88C29.19 6.54 28.6367 6.17333 27.95 5.78L28.77 5.27C29.4567 5.69 30.01 6.08 30.43 6.44C31.33 5.89333 32.0033 5.25667 32.45 4.53H28.99C28.3033 5.15667 27.4467 5.71667 26.42 6.21L25.78 5.39C27.4667 4.67 28.61 3.79667 29.21 2.77L30.25 2.89C30.0967 3.17 29.9433 3.42 29.79 3.64H33.54V4.48C32.8867 5.75333 31.7167 6.81 30.03 7.65H33.86V12H32.9V11.47H28.67ZM32.9 10.55V8.53H28.67V10.55H32.9ZM35.55 5.46H36.93V4.26C36.6567 4.29333 36.2667 4.33667 35.76 4.39L35.57 3.5C36.81 3.4 37.91 3.2 38.87 2.9L39.2 3.8C38.8 3.91333 38.3467 4.01667 37.84 4.11V5.46H38.94V6.37H37.84V6.81C38.32 7.23 38.79 7.67333 39.25 8.14L38.71 8.94C38.37 8.42 38.08 8 37.84 7.68V11.99H36.93V7.78C36.5967 8.66667 36.19 9.45333 35.71 10.14L35.29 9.08C35.9833 8.29333 36.49 7.39 36.81 6.37H35.55V5.46ZM40.31 11.98L40.1 11.07C40.3933 11.11 40.67 11.13 40.93 11.13C41.1567 11.13 41.27 11.0067 41.27 10.76V5.79H42.23V11C42.23 11.6533 41.9067 11.98 41.26 11.98H40.31ZM40.76 7.37C40.4733 8.72333 40.0767 9.86667 39.57 10.8L38.75 10.28C39.2833 9.32 39.6633 8.29 39.89 7.19L40.76 7.37ZM43.53 7.1C43.9833 8.19333 44.3667 9.32667 44.68 10.5L43.8 10.89C43.4533 9.55 43.08 8.38 42.68 7.38L43.53 7.1ZM40.76 5.03C40.4733 5.65 40.1367 6.2 39.75 6.68L39.16 5.93C39.8133 5.07 40.2533 4.02333 40.48 2.79L41.42 2.9C41.3467 3.28667 41.2433 3.69333 41.11 4.12H44.34V4.73C44.2333 5.37667 44.0867 6.04 43.9 6.72L42.98 6.45C43.1267 6.07 43.2633 5.59667 43.39 5.03H40.76Z" fill="#7E5444"/>
</svg>
