<svg width="18" height="18" viewBox="0 0 18 18" fill="none" xmlns="http://www.w3.org/2000/svg">
<path d="M0 0H12C15.3137 0 18 2.68629 18 6V12C18 15.3137 15.3137 18 12 18H6C2.68629 18 0 15.3137 0 12V0Z" fill="#7E5444"/>
<path d="M3.26889 12.3766C5.11852 12.0684 7.0537 11.5648 9.07444 10.8658H3V9.42277H9.36778V5.82638H10.9322V9.42277H14V10.8658H10.92L13.8778 12.3766V13.9887L10.1256 12.0722C8.11296 12.9064 5.82741 13.549 3.26889 14V12.3766ZM3.37889 4H13.7311V6.82976H12.1911V5.43179H3.37889V4ZM3.83111 7.13416L7.16778 7.70913V8.99436L3.83111 8.41939V7.13416ZM5.49333 5.65727L8.83 6.23224V7.51747L5.49333 6.9425V5.65727Z" fill="#FADCA2"/>
</svg>
