<svg width="50" height="14" viewBox="0 0 50 14" fill="none" xmlns="http://www.w3.org/2000/svg">
<rect width="50" height="14" rx="7" fill="url(#paint0_linear_159_7199)"/>
<path d="M5.99 4.49H6.69V12.01H5.99V4.49ZM12.14 11.92L11.96 11.25L12.85 11.27C13.1433 11.27 13.29 11.0733 13.29 10.68V4.01H9.43V3.35H13.99V10.88C13.99 11.5733 13.66 11.92 13 11.92H12.14ZM9.75 7.72C9.67 7.92 9.59 8.11 9.51 8.29C9.07667 9.09 8.46 9.79333 7.66 10.4L7.21 9.83C7.93667 9.26333 8.47667 8.64667 8.83 7.98C9.19667 7.23333 9.46 6.24 9.62 5H10.38C10.2733 5.75333 10.1367 6.43333 9.97 7.04C10.9833 7.93333 11.8433 8.83 12.55 9.73L12 10.28C11.44 9.48 10.69 8.62667 9.75 7.72ZM7.46 2.74C7.91333 3.3 8.31333 3.91 8.66 4.57L8.02 4.91C7.65333 4.20333 7.24667 3.57667 6.8 3.03L7.46 2.74ZM19.17 3.23V9.51H18.53V3.9H16.46V9.51H15.81V3.23H19.17ZM21.29 2.89C21.19 3.37667 21.07 3.83333 20.93 4.26H24.2C24.2 7.68 24.1467 9.81667 24.04 10.67C23.94 11.49 23.5 11.9 22.72 11.9C22.4467 11.9 21.98 11.89 21.32 11.87L21.15 11.22C21.8967 11.2467 22.3833 11.26 22.61 11.26C23.03 11.26 23.28 11 23.36 10.48C23.4333 9.94 23.48 8.1 23.5 4.96H20.65C20.37 5.57333 20.0367 6.12 19.65 6.6L19.21 6.03C19.89 5.15 20.35 4.07333 20.59 2.8L21.29 2.89ZM22.17 7.23C22.4833 7.97 22.8 8.84 23.12 9.84L22.53 10.14L22.31 9.42C21.5767 9.58667 20.71 9.72333 19.71 9.83L19.59 9.21C19.9767 8.90333 20.4533 7.78333 21.02 5.85L21.67 6.06C21.2433 7.36 20.8233 8.39 20.41 9.15C21.0433 9.06333 21.6133 8.96 22.12 8.84C21.9667 8.38667 21.8 7.94 21.62 7.5L22.17 7.23ZM17.19 4.63H17.79V7.91C17.77 9.02333 17.6067 9.90667 17.3 10.56C17 11.1733 16.51 11.6567 15.83 12.01L15.45 11.41C16.09 11.0767 16.54 10.6433 16.8 10.11C17.04 9.55 17.17 8.81667 17.19 7.91V4.63ZM18.2 9.81C18.76 10.35 19.23 10.89 19.61 11.43L19.09 11.94C18.77 11.42 18.32 10.86 17.74 10.26L18.2 9.81ZM25.76 3.74H29.62L29.73 2.8L30.46 2.9C30.42 3.26667 30.3867 3.54667 30.36 3.74H34.24V4.43H30.25C30.21 4.67667 30.1533 4.95333 30.08 5.26H32.96V11.1H34.44V11.77H25.57V11.1H27V5.26H29.34C29.42 4.88667 29.4767 4.61 29.51 4.43H25.76V3.74ZM27.71 11.1H32.25V10.22H27.71V11.1ZM27.71 9.63H32.25V8.78H27.71V9.63ZM27.71 8.2H32.25V7.36H27.71V8.2ZM27.71 6.77H32.25V5.9H27.71V6.77ZM39.01 10.37L39.45 8.74L40.14 8.84L39.88 9.72H41.47V8.32H39.1V7.67H41.47V6.92H42.16V7.67H43.94V8.32H42.16V9.72H44.26V10.37H42.16V11.99H41.47V10.37H39.01ZM35.83 3.25H38.76V3.82C38.46 4.76 38.1167 5.7 37.73 6.64C38.3367 7.52667 38.6633 8.32 38.71 9.02C38.71 9.44 38.61 9.74667 38.41 9.94C38.1433 10.1667 37.6733 10.2867 37 10.3L36.77 9.56C36.97 9.58667 37.1 9.6 37.16 9.6C37.5067 9.58 37.7333 9.53333 37.84 9.46C37.9533 9.36667 38.01 9.22 38.01 9.02C38.01 8.34667 37.68 7.59 37.02 6.75C37.48 5.66333 37.8233 4.72333 38.05 3.93H36.51V12H35.83V3.25ZM41.28 2.98C41.1667 3.18 41.04 3.39667 40.9 3.63H43.77V4.2C43.4633 4.86 42.9567 5.43333 42.25 5.92C42.9433 6.21333 43.72 6.43667 44.58 6.59L44.33 7.23C43.23 7.01667 42.3067 6.72 41.56 6.34C40.82 6.72667 39.9333 7.04667 38.9 7.3L38.56 6.67C39.4667 6.49 40.25 6.25 40.91 5.95C40.4833 5.65667 40.1267 5.31667 39.84 4.93C39.5867 5.17 39.3433 5.38 39.11 5.56L38.66 5.02C39.4533 4.45333 40.1 3.72333 40.6 2.83L41.28 2.98ZM41.59 5.59C42.2033 5.21 42.67 4.76333 42.99 4.25H40.45L40.29 4.45C40.5833 4.88333 41.0167 5.26333 41.59 5.59Z" fill="white"/>
<defs>
<linearGradient id="paint0_linear_159_7199" x1="0" y1="7" x2="50" y2="7" gradientUnits="userSpaceOnUse">
<stop stop-color="#F9B95E"/>
<stop offset="1" stop-color="#FF6961"/>
</linearGradient>
</defs>
</svg>
