<svg width="25" height="20" viewBox="0 0 25 20" fill="none" xmlns="http://www.w3.org/2000/svg">
<path d="M0 14C0 17.3137 2.68629 20 6 20H19C22.3137 20 25 17.3137 25 14V8.43902C25 5.12532 22.3137 2.43902 19 2.43902H5L0 0V14Z" fill="#FD5E37"/>
<path d="M7.628 8.32605C8.414 8.32605 9.011 8.61105 9.419 9.18105C9.821 9.73905 10.022 10.5071 10.022 11.4851C10.022 12.5231 9.809 13.3691 9.383 14.0231C8.939 14.6771 8.351 15.0041 7.619 15.0041C6.371 15.0041 5.666 14.4221 5.504 13.2581H6.458C6.584 13.8821 6.974 14.1941 7.628 14.1941C8.06 14.1941 8.414 13.9751 8.69 13.5371C8.948 13.1111 9.077 12.5921 9.077 11.9801L9.068 11.8631H9.032C8.858 12.1331 8.63 12.3431 8.348 12.4931C8.072 12.6251 7.775 12.6911 7.457 12.6911C6.821 12.6911 6.314 12.4871 5.936 12.0791C5.57 11.6891 5.387 11.1761 5.387 10.5401C5.387 9.89205 5.6 9.36405 6.026 8.95605C6.452 8.53605 6.986 8.32605 7.628 8.32605ZM7.664 9.13605C7.256 9.13605 6.938 9.26805 6.71 9.53205C6.47 9.79005 6.35 10.1261 6.35 10.5401C6.35 10.9541 6.47 11.2811 6.71 11.5211C6.938 11.7731 7.253 11.8991 7.655 11.8991C8.057 11.8991 8.375 11.7731 8.609 11.5211C8.843 11.2691 8.96 10.9331 8.96 10.5131C8.96 10.0991 8.84 9.76605 8.6 9.51405C8.36 9.26205 8.048 9.13605 7.664 9.13605ZM18.7395 8.26305C17.7135 8.61105 16.5645 8.81805 15.2925 8.88405V10.3421H18.9465V11.1611H17.6505V15.8411H16.7865V11.1611H15.2925V11.4311C15.2385 13.2371 14.7945 14.6891 13.9605 15.7871L13.3575 15.1481C14.0355 14.2541 14.4015 13.0151 14.4555 11.4311V8.17305C15.9015 8.13705 17.1885 7.90905 18.3165 7.48905L18.7395 8.26305ZM11.2245 15.7061L11.0265 14.8871C11.2965 14.9231 11.5485 14.9411 11.7825 14.9411C12.0045 14.9411 12.1155 14.8211 12.1155 14.5811V12.6731C11.5995 12.8411 11.2125 12.9611 10.9545 13.0331L10.7475 12.1691C11.1675 12.0791 11.6235 11.9561 12.1155 11.8001V9.90105H10.9095V9.08205H12.1155V7.50705H12.9525V9.08205H13.9965V9.90105H12.9525V11.5031C13.3245 11.3591 13.6845 11.1971 14.0325 11.0171V11.8901C13.5945 12.0881 13.2345 12.2441 12.9525 12.3581V14.7971C12.9525 15.4031 12.6615 15.7061 12.0795 15.7061H11.2245Z" fill="white"/>
</svg>
