<svg width="25" height="20" viewBox="0 0 25 20" fill="none" xmlns="http://www.w3.org/2000/svg">
<path d="M0 6C0 2.68629 2.68629 0 6 0H19C22.3137 0 25 2.68629 25 6V11.561C25 14.8747 22.3137 17.561 19 17.561H5L0 20V6Z" fill="#FD5E37"/>
<path d="M7.628 5.39923C8.414 5.39923 9.011 5.68423 9.419 6.25423C9.821 6.81223 10.022 7.58023 10.022 8.55823C10.022 9.59623 9.809 10.4422 9.383 11.0962C8.939 11.7502 8.351 12.0772 7.619 12.0772C6.371 12.0772 5.666 11.4952 5.504 10.3312H6.458C6.584 10.9552 6.974 11.2672 7.628 11.2672C8.06 11.2672 8.414 11.0482 8.69 10.6102C8.948 10.1842 9.077 9.66523 9.077 9.05323L9.068 8.93623H9.032C8.858 9.20623 8.63 9.41623 8.348 9.56623C8.072 9.69823 7.775 9.76423 7.457 9.76423C6.821 9.76423 6.314 9.56023 5.936 9.15223C5.57 8.76223 5.387 8.24923 5.387 7.61323C5.387 6.96523 5.6 6.43723 6.026 6.02923C6.452 5.60923 6.986 5.39923 7.628 5.39923ZM7.664 6.20923C7.256 6.20923 6.938 6.34123 6.71 6.60523C6.47 6.86323 6.35 7.19923 6.35 7.61323C6.35 8.02723 6.47 8.35423 6.71 8.59423C6.938 8.84623 7.253 8.97223 7.655 8.97223C8.057 8.97223 8.375 8.84623 8.609 8.59423C8.843 8.34223 8.96 8.00623 8.96 7.58623C8.96 7.17223 8.84 6.83923 8.6 6.58723C8.36 6.33523 8.048 6.20923 7.664 6.20923ZM18.7395 5.33623C17.7135 5.68423 16.5645 5.89123 15.2925 5.95723V7.41523H18.9465V8.23423H17.6505V12.9142H16.7865V8.23423H15.2925V8.50423C15.2385 10.3102 14.7945 11.7622 13.9605 12.8602L13.3575 12.2212C14.0355 11.3272 14.4015 10.0882 14.4555 8.50423V5.24623C15.9015 5.21023 17.1885 4.98223 18.3165 4.56223L18.7395 5.33623ZM11.2245 12.7792L11.0265 11.9602C11.2965 11.9962 11.5485 12.0142 11.7825 12.0142C12.0045 12.0142 12.1155 11.8942 12.1155 11.6542V9.74623C11.5995 9.91423 11.2125 10.0342 10.9545 10.1062L10.7475 9.24223C11.1675 9.15223 11.6235 9.02923 12.1155 8.87323V6.97423H10.9095V6.15523H12.1155V4.58023H12.9525V6.15523H13.9965V6.97423H12.9525V8.57623C13.3245 8.43223 13.6845 8.27023 14.0325 8.09023V8.96323C13.5945 9.16123 13.2345 9.31723 12.9525 9.43123V11.8702C12.9525 12.4762 12.6615 12.7792 12.0795 12.7792H11.2245Z" fill="white"/>
</svg>
