<svg width="18" height="18" viewBox="0 0 18 18" fill="none" xmlns="http://www.w3.org/2000/svg">
<path d="M0 0H12C15.3137 0 18 2.68629 18 6V12C18 15.3137 15.3137 18 12 18H6C2.68629 18 0 15.3137 0 12V0Z" fill="#FADCA2"/>
<path d="M5.45333 6.06087L5.01333 5.08044H3V3.59783H8.12V3H9.88V3.59783H15V5.08044H12.9867L12.5467 6.06087H14.6667V14H12.9733V10.1739H11.84V13.3902H6.16V10.1739H5.02667V14H3.33333V6.06087H5.45333ZM6.66667 7.77065H8.46667L7.48 9.14565H10.52L9.53333 7.77065H11.3333L12.9733 10.0424V7.51956H5.02667V10.0424L6.66667 7.77065ZM7.33333 6.06087H10.6667L11.1067 5.08044H6.89333L7.33333 6.06087ZM10.1733 12.0272V10.5087H7.82667V12.0272H10.1733Z" fill="#7E5444"/>
</svg>
