<svg width="80" height="28" viewBox="0 0 80 28" fill="none" xmlns="http://www.w3.org/2000/svg">
<rect width="80" height="28" rx="14" fill="#F3CE94"/>
<path d="M13.162 9.816H18.538C18.314 9.06 18.076 8.374 17.824 7.758L18.986 7.562C19.1913 8.15933 19.406 8.91067 19.63 9.816H24.88V10.796H13.162V9.816ZM12.686 18.608H19.63C20.47 16.7693 21.2167 14.436 21.87 11.608L22.934 11.888C22.3553 14.4267 21.6367 16.6667 20.778 18.608H25.356V19.588H12.686V18.608ZM16.172 11.664C16.7973 13.4933 17.3433 15.5747 17.81 17.908L16.732 18.174C16.3213 16.102 15.7847 14.0487 15.122 12.014L16.172 11.664ZM28.366 11.776V13.708H31.684V11.776H28.366ZM31.684 10.866V9.032H28.366V10.866H31.684ZM26.91 19.014C27.218 18.902 27.372 18.72 27.372 18.468V8.122H32.636V14.646H28.366V18.678C29.682 18.286 30.774 17.9127 31.642 17.558C31.3713 17.0633 31.082 16.5827 30.774 16.116L31.544 15.626C32.4213 16.97 33.0933 18.1553 33.56 19.182L32.79 19.742C32.594 19.3033 32.37 18.8553 32.118 18.398C30.6807 19.0047 29.0613 19.532 27.26 19.98L26.91 19.014ZM36.332 18.468L36.066 17.488L37.27 17.516C37.6527 17.516 37.844 17.3247 37.844 16.942V9.074H35.296V20.358H34.288V8.122H38.852V17.166C38.852 18.034 38.4367 18.468 37.606 18.468H36.332ZM46.454 7.562H47.49V9.396H52.992V10.376H47.49V12.518H51.256V13.414C50.472 14.982 49.338 16.326 47.854 17.446C48.61 17.866 49.38 18.2347 50.164 18.552C51.1253 18.916 52.1893 19.2427 53.356 19.532L52.768 20.414C51.5173 20.078 50.374 19.6953 49.338 19.266C48.4793 18.8927 47.7 18.482 47 18.034C45.4133 19.0327 43.5047 19.8353 41.274 20.442L40.7 19.546C42.8373 19.042 44.6527 18.342 46.146 17.446C45.39 16.858 44.7553 16.2373 44.242 15.584C43.7287 14.94 43.3647 14.2307 43.15 13.456H42.072V12.518H46.454V10.376H41.008V9.396H46.454V7.562ZM46.986 16.9C48.3487 15.9387 49.394 14.7907 50.122 13.456H44.144C44.396 14.2027 44.788 14.8653 45.32 15.444C45.796 15.9947 46.3513 16.48 46.986 16.9ZM58.648 7.884C58.3587 8.78933 57.976 9.70867 57.5 10.642V20.428H56.492V12.308C56.016 13.0173 55.4467 13.722 54.784 14.422L54.476 13.372C55.96 11.6453 57.038 9.66667 57.71 7.436L58.648 7.884ZM58.942 10.6H64.304V7.59H65.312V10.6H67.328V11.58H65.312V18.888C65.312 19.84 64.8733 20.316 63.996 20.316H61.966L61.742 19.322C62.47 19.3687 63.1047 19.392 63.646 19.392C64.0847 19.392 64.304 19.14 64.304 18.636V11.58H58.942V10.6ZM60.23 13.106C61.3033 14.3753 62.1247 15.4767 62.694 16.41L61.84 17.012C61.2427 15.9853 60.4307 14.8513 59.404 13.61L60.23 13.106Z" fill="#2B2C2F"/>
</svg>
