<svg width="64" height="26" viewBox="0 0 64 26" fill="none" xmlns="http://www.w3.org/2000/svg">
<rect width="64" height="26" rx="13" fill="#DB5445"/>
<path d="M19.68 6.534H20.66V8.326H23.418V9.278H20.66V11.238H23.936V12.218H21.626V15.956C21.626 16.18 21.7613 16.292 22.032 16.292H22.55C22.7647 16.292 22.942 16.25 23.082 16.166C23.2593 16.054 23.376 15.522 23.432 14.57L24.314 14.864C24.202 16.012 24.0387 16.684 23.824 16.88C23.6187 17.0853 23.2593 17.188 22.746 17.188H21.724C21.3787 17.188 21.122 17.09 20.954 16.894C20.7767 16.7073 20.688 16.4693 20.688 16.18V12.218H19.302C19.2647 13.1607 19.1293 13.982 18.896 14.682C18.5227 15.746 17.678 16.6187 16.362 17.3L15.718 16.502C16.838 15.9607 17.58 15.2653 17.944 14.416C18.168 13.828 18.308 13.0953 18.364 12.218H16.194V11.238H19.68V9.278H17.426C17.1647 9.81933 16.8893 10.3047 16.6 10.734L15.746 10.188C16.4647 9.17067 16.9873 8.018 17.314 6.73L18.28 6.926C18.112 7.50467 17.9627 7.97133 17.832 8.326H19.68V6.534ZM12.764 6.786C13.688 7.50467 14.4767 8.23267 15.13 8.97L14.43 9.67C13.8607 8.97 13.0767 8.228 12.078 7.444L12.764 6.786ZM20.954 19.148C20.478 19.148 19.6427 19.1387 18.448 19.12C17.5333 19.1013 16.796 19.0173 16.236 18.868C15.676 18.7 15.1767 18.3593 14.738 17.846C14.542 17.6127 14.36 17.496 14.192 17.496C13.8467 17.496 13.2913 18.1353 12.526 19.414L11.77 18.742C12.5167 17.566 13.1747 16.852 13.744 16.6V12.344H11.756V11.42H14.682V16.656C14.8033 16.7493 14.92 16.8567 15.032 16.978C15.368 17.3793 15.732 17.6733 16.124 17.86C16.572 18.056 17.2113 18.168 18.042 18.196C19.0313 18.2147 19.9553 18.224 20.814 18.224C21.234 18.224 21.9013 18.2147 22.816 18.196C23.572 18.1773 24.09 18.1587 24.37 18.14L24.132 19.148H20.954ZM25.994 8.592H27.996V6.674H29.004V8.592H30.866V9.558H29.004V11.868H31.062V12.848H28.948C28.9293 13.1187 28.892 13.4687 28.836 13.898C29.648 14.6633 30.4507 15.5127 31.244 16.446L30.684 17.314C29.9373 16.306 29.27 15.4753 28.682 14.822C28.2713 16.8007 27.4967 18.3407 26.358 19.442L25.616 18.784C26.9693 17.468 27.744 15.4893 27.94 12.848H25.798V11.868H27.996V9.558H25.994V8.592ZM37.362 7.15V14.836H36.396V8.088H32.658V14.836H31.692V7.15H37.362ZM35.822 19.218C35.1033 19.218 34.744 18.8307 34.744 18.056V14.906H35.654V17.846C35.654 18.154 35.8033 18.308 36.102 18.308H36.816C37.0587 18.308 37.2267 18.238 37.32 18.098C37.4413 17.9207 37.53 17.3933 37.586 16.516L38.454 16.796C38.37 17.9347 38.2113 18.6347 37.978 18.896C37.7447 19.1107 37.4133 19.218 36.984 19.218H35.822ZM34.072 9.25H34.982V11.728C34.954 13.8093 34.5807 15.4753 33.862 16.726C33.162 17.874 32.0233 18.7793 30.446 19.442L29.914 18.588C31.454 17.9627 32.532 17.1133 33.148 16.04C33.7173 14.9387 34.0253 13.5013 34.072 11.728V9.25ZM42.64 19.344H41.646V12.316C41.2167 13.6413 40.6473 14.8547 39.938 15.956L39.504 14.864C40.4933 13.5107 41.2027 11.98 41.632 10.272H39.784V9.306H41.646V6.576H42.64V9.306H44.166V10.272H42.64V11.028C43.2747 11.756 43.872 12.5027 44.432 13.268L44.418 13.282C45.6873 12.7593 46.756 12.1807 47.624 11.546C46.9987 10.958 46.4993 10.3653 46.126 9.768C45.762 10.244 45.3747 10.6873 44.964 11.098L44.32 10.328C45.3373 9.36667 46.168 8.10667 46.812 6.548L47.778 6.758C47.638 7.122 47.484 7.472 47.316 7.808H51.264V8.592C50.7693 9.69333 50.0367 10.692 49.066 11.588C49.9993 12.2413 51.1287 12.8153 52.454 13.31L52.006 14.248C50.5593 13.632 49.346 12.9413 48.366 12.176C47.3207 12.988 46.0233 13.6927 44.474 14.29L44.096 13.786L43.886 14.108C43.4567 13.3893 43.0413 12.7407 42.64 12.162V19.344ZM51.236 14.15V19.372H50.256V18.756H46.294V19.372H45.314V14.15H51.236ZM46.294 17.818H50.256V15.088H46.294V17.818ZM48.31 11C49.0847 10.328 49.7007 9.586 50.158 8.774H46.784L46.63 9.04C47.0687 9.768 47.6287 10.4213 48.31 11Z" fill="white"/>
</svg>
