<svg width="102" height="90" viewBox="0 0 102 90" fill="none" xmlns="http://www.w3.org/2000/svg">
  <path fill-rule="evenodd" clip-rule="evenodd" d="M98 0H8C3.58172 0 0 3.58172 0 8V82C0 86.4183 3.58172 90 8 90H98C98 87.7909 99.7909 86 102 86V84C99.7909 84 98 82.2091 98 80C98 77.7909 99.7909 76 102 76V74C99.7909 74 98 72.2091 98 70C98 67.7909 99.7909 66 102 66V64C99.7909 64 98 62.2091 98 60C98 57.7909 99.7909 56 102 56V54C99.7909 54 98 52.2091 98 50C98 47.7909 99.7909 46 102 46V44C99.7909 44 98 42.2091 98 40C98 37.7909 99.7909 36 102 36V34C99.7909 34 98 32.2091 98 30C98 27.7909 99.7909 26 102 26V24C99.7909 24 98 22.2091 98 20C98 17.7909 99.7909 16 102 16V14C99.7909 14 98 12.2091 98 10C98 7.79086 99.7909 6 102 6V4C99.7909 4 98 2.20914 98 0Z" fill="currentColor"/>
</svg> 