<svg width="25" height="25" viewBox="0 0 25 25" fill="none" xmlns="http://www.w3.org/2000/svg">
<path d="M0 0H25V23.8273C25 24.4426 24.4496 24.9119 23.842 24.8147L12.658 23.0253C12.5533 23.0085 12.4467 23.0085 12.342 23.0253L1.15799 24.8147C0.550405 24.9119 0 24.4426 0 23.8273V0Z" fill="url(#paint0_linear_142_850)"/>
<path d="M22.0869 20.2185H17.2548V12.468H22.0869V20.2185ZM13.5422 16.4868L14.8053 16.1997V14.4774H13.6379V13.2718H14.8053V11.9418H16.0492V13.2718H16.8147V14.4774H16.0492V15.9127L16.9103 15.7213V17.0513L16.0492 17.2427V20.6012H13.8006V19.4435H14.8053V17.5298L13.5422 17.8168V16.4868ZM20.8525 18.9937V13.6928H18.4891V18.9937H20.8525Z" fill="white"/>
<path d="M6.85376 20.6013C7.10892 19.9889 7.28434 19.3797 7.38003 18.7737C7.47571 18.1613 7.52355 17.4788 7.52355 16.7261V12.181C9.45001 12.181 11.0894 12.0981 12.4417 11.9323V13.1379C11.4402 13.2782 10.2091 13.358 8.74832 13.3771V14.6593H12.7097V15.8649H11.6954V20.6013H10.4706V15.8649H8.74832V16.7261C8.74832 18.1422 8.57609 19.4339 8.23162 20.6013H6.85376Z" fill="white"/>
<path d="M4.97832 17.568V18.9315V19.6444H4.40336L5.5907 20.6012L6.79548 19.6444H6.20309V18.9315V17.2618L7.07382 17.0513V15.7213L6.20309 15.9318V14.4774H6.97813V13.2718H6.20309V11.9418H4.97832V13.2718H4.06932V14.4774H4.97832V16.238L3.97363 16.4868V17.8168L4.97832 17.568Z" fill="#FFDD64"/>
<path d="M22.0321 11.0292C20.8576 10.6759 19.91 10.2173 19.1892 9.65341C18.4752 9.08951 17.9179 8.38973 17.5175 7.55407C17.1171 8.38973 16.5565 9.08951 15.8358 9.65341C15.1218 10.2173 14.1775 10.6759 13.0029 11.0292V9.60246C13.9506 9.24917 14.698 8.83474 15.2452 8.35916C15.7991 7.88358 16.2462 7.23815 16.5866 6.42288H13.0129V5.10824H16.8468L16.8368 3.31463H13.4634V2H21.5717V3.31463H18.1982V5.10824H22.0221V6.42288H18.4485C18.7888 7.23815 19.2326 7.88358 19.7798 8.35916C20.3337 8.83474 21.0845 9.24917 22.0321 9.60246V11.0292Z" fill="white"/>
<path d="M12.0999 11.0292C11.0428 10.6759 10.19 10.2173 9.5413 9.65341C8.89865 9.08951 8.39713 8.38973 8.03677 7.55407C7.6764 8.38973 7.17189 9.08951 6.52323 9.65341C5.88057 10.2173 5.03071 10.6759 3.97363 11.0292V9.60246C4.8265 9.24917 5.49919 8.83474 5.99169 8.35916C6.49019 7.88358 6.8926 7.23815 7.19892 6.42288H3.98264V5.10824H7.43315L7.42414 3.31463H4.38805V2H11.6855V3.31463H8.64939V5.10824H12.0909V6.42288H8.87462C9.18093 7.23815 9.58034 7.88358 10.0728 8.35916C10.5713 8.83474 11.247 9.24917 12.0999 9.60246V11.0292Z" fill="white"/>
<defs>
<linearGradient id="paint0_linear_142_850" x1="-2" y1="-2.5" x2="12.5" y2="25" gradientUnits="userSpaceOnUse">
<stop stop-color="#FF6C20"/>
<stop offset="1" stop-color="#FF4400"/>
</linearGradient>
</defs>
</svg>
