<svg width="25" height="25" viewBox="0 0 25 25" fill="none" xmlns="http://www.w3.org/2000/svg">
<path d="M0 0H25V23.8273C25 24.4426 24.4496 24.9119 23.842 24.8147L12.658 23.0253C12.5533 23.0085 12.4467 23.0085 12.342 23.0253L1.15799 24.8147C0.550405 24.9119 0 24.4426 0 23.8273V0Z" fill="#FB4D3F"/>
<path d="M13.2701 12.12H20.7301V15.8H13.2701V12.12ZM16.7001 20.9H12.5701V16.43H16.7001V20.9ZM13.8201 17.7V19.63H15.4501V17.7H13.8201ZM14.5801 13.36V14.56H19.4201V13.36H14.5801ZM21.4301 20.9H17.3001V16.43H21.4301V20.9ZM18.5501 17.7V19.63H20.1801V17.7H18.5501Z" fill="white"/>
<path d="M4.58016 12V15.85C4.58016 16.31 4.57682 16.65 4.57016 16.87H5.25016C5.39682 17.5433 5.50349 18.2 5.57016 18.84C5.64349 19.4733 5.68016 20.1533 5.68016 20.88H4.70016C4.70016 19.9867 4.63349 19.1033 4.50016 18.23C4.40682 19.25 4.19349 20.1733 3.86016 21H2.49016C2.87682 20.2267 3.13682 19.45 3.27016 18.67C3.40349 17.89 3.47016 16.95 3.47016 15.85V12H4.58016ZM3.23016 12.75L3.41016 16.61H2.59016L2.41016 12.75H3.23016ZM5.69016 18.6C6.01682 18.18 6.27682 17.78 6.47016 17.4H5.84016V16.46H6.96016V16.06H5.98016V15.15H6.96016V14.76H6.15016V12.04H11.1902V14.76H10.3802V15.15H11.3602V16.06H10.3802V16.46H11.5002V17.4H10.9202C11.1135 17.78 11.3735 18.18 11.7002 18.6H10.7802L10.4902 19.34H9.42016L9.91016 18.08C9.77682 17.8333 9.66016 17.6067 9.56016 17.4H7.83016C7.75016 17.5667 7.62349 17.81 7.45016 18.13L7.92016 19.34H6.85016L6.56016 18.6H5.69016ZM5.97016 20L8.08016 19.34V17.6H9.26016V19.34L11.3702 20V21L9.26016 20.34V21H8.08016V20.34L5.97016 21V20ZM9.93016 14.06V13.72H7.41016V14.06H9.93016ZM9.93016 13.08V12.75H7.41016V13.08H9.93016ZM9.16016 16.46V16.06H8.18016V16.46H9.16016ZM9.16016 15.15V14.76H8.18016V15.15H9.16016Z" fill="white"/>
<path d="M5.66999 12.75H4.86999L4.73999 16.22H5.53999L5.66999 12.75Z" fill="#FFF1A6"/>
<path d="M17.9301 11C18.3568 10.2667 18.7135 9.55333 19.0001 8.86L17.8101 7.91C17.6501 8.95667 17.3635 9.98667 16.9501 11H15.5001C15.6068 10.7867 15.6835 10.6267 15.7301 10.52L12.5001 10.92V9.64L15.8601 9.22V10.21C16.1735 9.45 16.3935 8.68 16.5201 7.9C16.6535 7.11333 16.7201 6.27333 16.7201 5.38V3.31H15.9401V2.1H20.6801L20.1501 4.48H21.4201C21.3201 5.3 21.1968 6.05 21.0501 6.73C20.9101 7.41 20.7335 8.06333 20.5201 8.69L21.6001 9.55V11.1L19.9501 9.79C19.8301 10.0967 19.6468 10.5 19.4001 11H17.9301ZM13.9001 2H15.2401L14.0201 4.86L14.4801 5.09L14.9601 3.92H16.2601L14.8201 7.38H15.9201V8.62H12.7101L13.7001 6.24L12.4001 5.58L13.9001 2ZM19.5701 7.69C19.7701 7.08333 19.9368 6.41333 20.0701 5.68H18.6601L19.1801 3.31H17.9801V5.38C17.9801 5.72667 17.9701 6.06667 17.9501 6.4L19.5701 7.69Z" fill="white"/>
<path d="M11.6 9.66V10.9H6.50005C5.81338 10.9 5.25005 10.8533 4.81005 10.76C4.37672 10.6733 3.98005 10.52 3.62005 10.3C3.56672 10.6067 3.52338 10.84 3.49005 11H2.30005C2.48672 10.2267 2.61005 9.51333 2.67005 8.86C2.73672 8.2 2.77005 7.41333 2.77005 6.5H3.91005C3.89672 7.54 3.86005 8.35667 3.80005 8.95C4.01338 9.10333 4.21005 9.22 4.39005 9.3V6.03H2.50005V4.88H3.97005V3.99H2.67005V2.85H3.97005V2H5.25005V2.85H6.51005V3.99H5.25005V4.88H6.68005V6.03H5.65005V7.04H6.55005V8.21H5.65005V9.62C5.88338 9.64667 6.16672 9.66 6.50005 9.66H11.6ZM6.78005 5.61C7.32672 4.86333 7.67338 4.08667 7.82005 3.28H7.00005V2.15H11.36L11.29 5.61H9.34005V4.46H10.12L10.15 3.28H9.01005C8.89005 4.14 8.60338 4.91667 8.15005 5.61H6.78005ZM7.19005 5.97H11.26V9.19H7.19005V5.97ZM10.03 8.09V7.07H8.42005V8.09H10.03Z" fill="white"/>
</svg>
