<svg width="25" height="25" viewBox="0 0 25 25" fill="none" xmlns="http://www.w3.org/2000/svg">
<path d="M0 0H25V23.8273C25 24.4426 24.4496 24.9119 23.842 24.8147L12.658 23.0253C12.5533 23.0085 12.4467 23.0085 12.342 23.0253L1.15799 24.8147C0.550405 24.9119 0 24.4426 0 23.8273V0Z" fill="#FE9500"/>
<path d="M13.2701 12.12H20.7301V15.8H13.2701V12.12ZM16.7001 20.9H12.5701V16.43H16.7001V20.9ZM13.8201 17.7V19.63H15.4501V17.7H13.8201ZM14.5801 13.36V14.56H19.4201V13.36H14.5801ZM21.4301 20.9H17.3001V16.43H21.4301V20.9ZM18.5501 17.7V19.63H20.1801V17.7H18.5501Z" fill="white"/>
<path d="M4.58016 12V15.85C4.58016 16.31 4.57682 16.65 4.57016 16.87H5.25016C5.39682 17.5433 5.50349 18.2 5.57016 18.84C5.64349 19.4733 5.68016 20.1533 5.68016 20.88H4.70016C4.70016 19.9867 4.63349 19.1033 4.50016 18.23C4.40682 19.25 4.19349 20.1733 3.86016 21H2.49016C2.87682 20.2267 3.13682 19.45 3.27016 18.67C3.40349 17.89 3.47016 16.95 3.47016 15.85V12H4.58016ZM3.23016 12.75L3.41016 16.61H2.59016L2.41016 12.75H3.23016ZM5.69016 18.6C6.01682 18.18 6.27682 17.78 6.47016 17.4H5.84016V16.46H6.96016V16.06H5.98016V15.15H6.96016V14.76H6.15016V12.04H11.1902V14.76H10.3802V15.15H11.3602V16.06H10.3802V16.46H11.5002V17.4H10.9202C11.1135 17.78 11.3735 18.18 11.7002 18.6H10.7802L10.4902 19.34H9.42016L9.91016 18.08C9.77682 17.8333 9.66016 17.6067 9.56016 17.4H7.83016C7.75016 17.5667 7.62349 17.81 7.45016 18.13L7.92016 19.34H6.85016L6.56016 18.6H5.69016ZM5.97016 20L8.08016 19.34V17.6H9.26016V19.34L11.3702 20V21L9.26016 20.34V21H8.08016V20.34L5.97016 21V20ZM9.93016 14.06V13.72H7.41016V14.06H9.93016ZM9.93016 13.08V12.75H7.41016V13.08H9.93016ZM9.16016 16.46V16.06H8.18016V16.46H9.16016ZM9.16016 15.15V14.76H8.18016V15.15H9.16016Z" fill="white"/>
<path d="M5.66999 12.75H4.86999L4.73999 16.22H5.53999L5.66999 12.75Z" fill="#FFF1A6"/>
<path d="M21.6001 6.25C20.7601 6.00333 20.0068 5.61667 19.3401 5.09V5.71H14.6601V5.09C13.9935 5.61667 13.2401 6.00333 12.4001 6.25V4.9C13.1935 4.56 13.8201 4.15667 14.2801 3.69C14.7468 3.21667 15.1201 2.65333 15.4001 2H18.6001C18.8801 2.65333 19.2501 3.21667 19.7101 3.69C20.1768 4.15667 20.8068 4.56 21.6001 4.9V6.25ZM12.5001 6.64H21.5001V7.91H16.3701L15.2001 9.64H19.4601L18.9001 8.47H20.3201L21.5001 10.92H12.8701V9.64H13.6601L14.8301 7.91H12.5001V6.64ZM18.6601 4.47C18.3268 4.11667 18.0335 3.71333 17.7801 3.26H16.2201C15.9668 3.71333 15.6735 4.11667 15.3401 4.47H18.6601Z" fill="white"/>
<path d="M5.63008 11.1C6.01675 10.3267 6.29341 9.59335 6.46008 8.90001C6.63341 8.20001 6.72008 7.42668 6.72008 6.58001V2.26001H10.7401V9.69001H11.6301V11H9.45008V3.60001H8.01008V6.58001C8.01008 7.44001 7.93675 8.21668 7.79008 8.91001C7.65008 9.60335 7.40674 10.3333 7.06008 11.1H5.63008ZM2.33008 10.48C2.69008 8.68001 2.87008 6.74668 2.87008 4.68001H3.94008C3.94008 6.88668 3.78341 8.82001 3.47008 10.48H2.33008ZM2.60008 3.03001H4.29008V1.95001H5.55008V3.03001H6.50008V4.27001H5.55008V5.49001L6.34008 5.98001V7.49001L5.55008 7.00001V11H4.29008V4.27001H2.60008V3.03001Z" fill="white"/>
</svg>
