<svg width="25" height="25" viewBox="0 0 25 25" fill="none" xmlns="http://www.w3.org/2000/svg">
<path d="M0 0H25V23.8273C25 24.4426 24.4496 24.9119 23.842 24.8147L12.658 23.0253C12.5533 23.0085 12.4467 23.0085 12.342 23.0253L1.15799 24.8147C0.550405 24.9119 0 24.4426 0 23.8273V0Z" fill="url(#paint0_linear_142_847)"/>
<path d="M17.1887 21.3952C16.5464 21.3952 16.0124 21.3568 15.5865 21.28C15.1607 21.2102 14.7768 21.088 14.4347 20.9135C14.3858 21.0811 14.3509 21.1893 14.33 21.2381C14.2951 21.3708 14.2707 21.458 14.2567 21.4999H12.8117C13.1398 20.5854 13.3806 19.7373 13.5342 18.9554C13.6878 18.1735 13.782 17.3289 13.8169 16.4214H12.5813V15.0601H15.1782C15.1782 15.9606 15.1468 16.7669 15.0839 17.479C15.0211 18.191 14.9129 18.8996 14.7593 19.6046C15.0735 19.7791 15.419 19.9048 15.796 19.9816C16.1799 20.0514 16.6441 20.0863 17.1887 20.0863H22.3196V21.3952H17.1887ZM14.4242 12.0758L15.1468 14.348H13.7331L13.0106 12.0758H14.4242ZM15.3562 18.2434C16.3544 17.9362 16.9408 17.3812 17.1153 16.5784H15.6389V15.3009H18.2567V14.0339H17.0944C17.0106 14.2992 16.9443 14.4981 16.8955 14.6308H15.4609C15.789 13.7861 16.0298 12.9414 16.1834 12.0967H17.4609C17.426 12.3341 17.3841 12.561 17.3352 12.7774H18.2567V11.9711H19.5866V12.7774H21.8169V14.0339H19.5866V15.3009H22.1101V16.5784H20.8117V18.1805H22.2149V19.458H19.5028V16.5784H18.4557C18.344 17.4231 18.0124 18.0933 17.4609 18.5889C16.9164 19.0845 16.2148 19.4161 15.3562 19.5837V18.2434Z" fill="url(#paint1_linear_142_847)"/>
<path d="M4.82219 21.4999C5.54121 20.5575 6.05081 19.6186 6.35099 18.6832C6.65117 17.7477 6.80125 16.6832 6.80125 15.4894V15.4057H5.1468V14.0444H6.80125V12.0758H8.16252V14.0444H11.7332V15.4057H10.351V20.1596H11.9426V21.4999H9.01069V15.4057H8.14157V15.4894C8.14157 16.6203 8.01592 17.6709 7.76461 18.6413C7.52028 19.6116 7.11888 20.5645 6.56042 21.4999H4.82219ZM2.21484 15.6151C3.00368 14.6727 3.55516 13.4929 3.8693 12.0758H5.19915C5.05954 12.9344 4.82568 13.7582 4.49758 14.547V21.4999H3.14679V16.7669C2.89548 17.0671 2.58483 17.3778 2.21484 17.6989V15.6151Z" fill="url(#paint2_linear_142_847)"/>
<path d="M10.6651 13.7198L10.2986 12.2224H9.06299L9.42948 13.7198H10.6651Z" fill="url(#paint3_linear_142_847)"/>
<path d="M17.2773 9.12308H13.1516V7.78275H17.2773V6.42149H13.937V5.10211H17.2773V3.74085H13.539V2.40053H17.2773V1.5H18.6595V2.40053H22.3977V3.74085H18.6595V5.10211H21.9998V6.42149H18.6595V7.78275H22.7852V9.12308H18.6595V11.0288H17.2773V9.12308Z" fill="url(#paint4_linear_142_847)"/>
<path d="M11.6541 11.1335C9.70642 10.4215 7.82857 9.96772 6.02053 9.77226V8.42146C7.03974 8.5541 7.96121 8.71466 8.78494 8.90314L9.80066 7.44764H5.92629V6.12826H12.2614L11.3399 7.43717V7.44764H11.3295L10.0834 9.22775C10.6 9.37435 11.1235 9.54887 11.6541 9.75131V11.1335ZM2.69067 10.4005C3.28404 8.78796 3.68195 7.13699 3.8844 5.44763H5.24566C5.02227 7.3883 4.66625 9.03927 4.17759 10.4005H2.69067ZM4.17759 1.92928L5.21425 4.82982H3.82157L2.78492 1.92928H4.17759ZM5.36084 4.12825C6.40099 3.47903 7.14445 2.63784 7.59122 1.60468H10.0834C10.5302 2.63784 11.2736 3.47903 12.3138 4.12825V5.61517C10.9525 4.96595 9.95074 4.07589 9.30851 2.945H8.36609C7.72386 4.07589 6.72211 4.96595 5.36084 5.61517V4.12825ZM9.35039 3.91882L9.7483 5.68847H8.40798L7.9996 3.91882H9.35039Z" fill="url(#paint5_linear_142_847)"/>
<defs>
<linearGradient id="paint0_linear_142_847" x1="-2" y1="-2.5" x2="12.5" y2="25" gradientUnits="userSpaceOnUse">
<stop stop-color="#AB8B80"/>
<stop offset="1" stop-color="#2C2D30"/>
</linearGradient>
<linearGradient id="paint1_linear_142_847" x1="17.4504" y1="11.9711" x2="17.4504" y2="21.4999" gradientUnits="userSpaceOnUse">
<stop stop-color="#FFECCF"/>
<stop offset="1" stop-color="#FEDBA5"/>
</linearGradient>
<linearGradient id="paint2_linear_142_847" x1="7.07874" y1="12.0758" x2="7.07874" y2="21.4999" gradientUnits="userSpaceOnUse">
<stop stop-color="#FFECCF"/>
<stop offset="1" stop-color="#FEDBA5"/>
</linearGradient>
<linearGradient id="paint3_linear_142_847" x1="9.86404" y1="12.2224" x2="9.86404" y2="13.7198" gradientUnits="userSpaceOnUse">
<stop stop-color="#FFECCF"/>
<stop offset="1" stop-color="#FEDBA5"/>
</linearGradient>
<linearGradient id="paint4_linear_142_847" x1="17.9684" y1="1.5" x2="17.9684" y2="11.0288" gradientUnits="userSpaceOnUse">
<stop stop-color="#FFECCF"/>
<stop offset="1" stop-color="#FEDBA5"/>
</linearGradient>
<linearGradient id="paint5_linear_142_847" x1="7.50222" y1="1.60468" x2="7.50222" y2="11.1335" gradientUnits="userSpaceOnUse">
<stop stop-color="#FFECCF"/>
<stop offset="1" stop-color="#FEDBA5"/>
</linearGradient>
</defs>
</svg>
